<svg data-v-423bf9ae="" xmlns="http://www.w3.org/2000/svg" viewBox="0 0 703 90" class="iconLeft"><!----><!----><!----><g data-v-423bf9ae="" id="85dc2a2c-d7d6-45b9-8839-82836c93f9bc" fill="black" transform="matrix(5.882352828979492,0,0,5.882352828979492,105.15392303466797,-3.8823487758636475)"><path d="M9.90 3.42L9.90 3.39L6.51 3.39L6.51 3.42C6.85 3.65 7.22 4.33 7.22 5.49L7.22 7.22L3.50 7.22L3.50 5.49C3.50 4.34 3.89 3.65 4.21 3.42L4.21 3.39L0.83 3.39L0.83 3.42C1.19 3.65 1.58 4.33 1.58 5.49L1.58 11.02C1.58 12.17 1.18 12.85 0.83 13.09L0.83 13.12L4.21 13.12L4.21 13.09C3.88 12.85 3.50 12.18 3.50 11.02L3.50 8.62L7.22 8.62L7.22 11.07C7.22 12.17 6.83 12.85 6.51 13.09L6.51 13.12L9.90 13.12L9.90 13.09C9.53 12.85 9.14 12.18 9.14 11.07L9.14 5.49C9.14 4.34 9.55 3.65 9.90 3.42ZM18.56 10.43C17.96 11.28 16.98 11.75 15.75 11.75L14.22 11.75L14.22 8.60L15.51 8.60C16.30 8.60 16.80 8.85 17.04 9.48L17.07 9.48L17.47 7.13C16.84 7.21 16.45 7.22 15.29 7.22L14.22 7.22L14.22 4.76L16.07 4.76C17.16 4.76 17.93 5.11 18.27 5.80L18.30 5.78L18.06 3.28C17.75 3.35 17.14 3.39 16.58 3.39L11.55 3.39L11.55 3.42C11.91 3.65 12.31 4.33 12.31 5.49L12.31 11.02C12.31 12.17 11.90 12.85 11.55 13.09L11.55 13.12L16.49 13.12C17.32 13.12 17.68 13.15 18.20 13.23L18.59 10.44ZM26.47 13.23L26.84 10.47L26.81 10.46C26.21 11.30 25.23 11.72 24.01 11.72L22.62 11.72L22.62 5.49C22.62 4.34 23.03 3.65 23.38 3.42L23.38 3.39L19.95 3.39L19.95 3.42C20.31 3.65 20.71 4.33 20.71 5.43L20.71 11.02C20.71 12.17 20.30 12.85 19.95 13.09L19.95 13.12L24.92 13.12C25.56 13.12 25.94 13.13 26.47 13.23ZM31.53 3.39L27.71 3.39L27.71 3.42C28.07 3.65 28.46 4.33 28.46 5.43L28.46 11.02C28.46 12.17 28.06 12.85 27.71 13.09L27.71 13.12L31.14 13.12L31.14 13.09C30.77 12.85 30.38 12.18 30.38 11.07L30.38 9.91L31.53 9.91C33.75 9.91 35.06 8.83 35.06 6.55C35.06 4.54 33.75 3.39 31.53 3.39ZM31.21 8.53L30.38 8.51L30.38 4.77L31.21 4.77C32.48 4.77 33.07 5.36 33.07 6.65C33.07 7.85 32.49 8.54 31.21 8.53ZM47.32 10.82L45.26 5.05C44.97 4.23 45.25 3.65 45.51 3.42L45.51 3.39L41.80 3.39L41.80 3.42C42.07 3.64 42.34 4.23 42.06 5.05L40.05 10.82C39.68 11.90 39.07 12.75 38.70 13.09L38.70 13.12L41.64 13.12L41.64 13.09C41.44 12.91 41.30 12.33 41.66 11.37L41.79 11.03L45.40 11.03L45.53 11.37C45.88 12.33 45.77 12.91 45.53 13.09L45.53 13.12L48.69 13.12L48.69 13.09C48.30 12.77 47.70 11.90 47.32 10.82ZM43.55 5.25L43.61 5.25C43.75 6.33 44.10 7.27 44.42 8.18L44.94 9.66L42.25 9.66L42.77 8.18C43.09 7.27 43.43 6.33 43.55 5.25ZM55.68 13.33C57.95 13.30 59.09 12.03 59.09 10.47C59.09 8.37 57.61 7.76 56.36 7.24C55.45 6.86 54.67 6.54 54.67 5.73C54.67 5.01 55.22 4.65 56.28 4.65C57.09 4.65 57.89 4.87 58.49 5.80L58.52 5.80L58.34 3.50C57.53 3.29 56.87 3.21 56.14 3.21C53.97 3.21 52.78 4.48 52.78 5.87C52.78 7.81 54.14 8.39 55.36 8.89C56.31 9.28 57.16 9.65 57.16 10.61C57.16 11.37 56.67 11.84 55.54 11.87C54.39 11.90 53.48 11.49 52.64 10.40L52.61 10.42L52.85 12.77C53.48 13.15 54.54 13.34 55.68 13.33ZM67.45 10.43C66.85 11.28 65.87 11.75 64.64 11.75L63.11 11.75L63.11 8.60L64.40 8.60C65.18 8.60 65.69 8.85 65.93 9.48L65.95 9.48L66.36 7.13C65.73 7.21 65.34 7.22 64.18 7.22L63.11 7.22L63.11 4.76L64.96 4.76C66.05 4.76 66.82 5.11 67.16 5.80L67.19 5.78L66.95 3.28C66.64 3.35 66.02 3.39 65.46 3.39L60.44 3.39L60.44 3.42C60.80 3.65 61.19 4.33 61.19 5.49L61.19 11.02C61.19 12.17 60.79 12.85 60.44 13.09L60.44 13.12L65.38 13.12C66.21 13.12 66.57 13.15 67.09 13.23L67.48 10.44ZM75.36 13.23L75.73 10.47L75.70 10.46C75.10 11.30 74.12 11.72 72.90 11.72L71.51 11.72L71.51 5.49C71.51 4.34 71.92 3.65 72.27 3.42L72.27 3.39L68.84 3.39L68.84 3.42C69.20 3.65 69.59 4.33 69.59 5.43L69.59 11.02C69.59 12.17 69.19 12.85 68.84 13.09L68.84 13.12L73.81 13.12C74.45 13.12 74.83 13.13 75.36 13.23ZM83.12 13.23L83.48 10.47L83.45 10.46C82.85 11.30 81.87 11.72 80.65 11.72L79.27 11.72L79.27 5.49C79.27 4.34 79.67 3.65 80.02 3.42L80.02 3.39L76.59 3.39L76.59 3.42C76.96 3.65 77.35 4.33 77.35 5.43L77.35 11.02C77.35 12.17 76.94 12.85 76.59 13.09L76.59 13.12L81.56 13.12C82.21 13.12 82.59 13.13 83.12 13.23ZM91.36 10.43C90.76 11.28 89.78 11.75 88.55 11.75L87.02 11.75L87.02 8.60L88.31 8.60C89.10 8.60 89.60 8.85 89.84 9.48L89.87 9.48L90.27 7.13C89.64 7.21 89.25 7.22 88.09 7.22L87.02 7.22L87.02 4.76L88.87 4.76C89.96 4.76 90.73 5.11 91.07 5.80L91.10 5.78L90.86 3.28C90.55 3.35 89.94 3.39 89.38 3.39L84.35 3.39L84.35 3.42C84.71 3.65 85.11 4.33 85.11 5.49L85.11 11.02C85.11 12.17 84.70 12.85 84.35 13.09L84.35 13.12L89.29 13.12C90.12 13.12 90.48 13.15 91 13.23L91.39 10.44ZM99.67 11.23L98.36 9.11C99.54 8.74 100.27 7.83 100.27 6.34C100.27 4.52 98.97 3.39 96.73 3.39L92.75 3.39L92.75 3.42C93.11 3.65 93.51 4.33 93.51 5.43L93.51 11.02C93.51 12.17 93.11 12.85 92.75 13.09L92.75 13.12L96.12 13.12L96.12 13.09C95.82 12.85 95.42 12.18 95.42 11.07L95.42 4.77L96.40 4.76C97.61 4.75 98.28 5.39 98.28 6.41C98.28 7.66 97.61 8.15 96.40 8.15L95.73 8.15L97.90 11.86C98.21 12.38 98.43 12.87 98.62 13.41L101.49 12.89L101.49 12.87C100.81 12.64 100.20 12.08 99.67 11.23Z"></path></g><!----><g data-v-423bf9ae="" id="03cd3556-e616-4789-a69e-9b6170d2eda6" transform="matrix(1.124861240386963,0,0,1.124861240386963,-10.262595176696777,-10.247483253479004)" stroke="none" fill="black"><path d="M67.99 14.27c19.729 9.94 27.67 33.98 17.74 53.72l-7.521-7.79c5.64-15.58-2.43-32.78-18.01-38.41-.312-.12-.92-.32-1.24-.42l-5.33-2.05 2.91 3.35 21.67 37.53 6.04 10.46c-.75 1.31-2.4 3.64-3.39 4.779-14.052 17.051-39.262 19.48-56.302 5.42l3.102-10.829c11.06 12.329 30.029 13.37 42.37 2.31.63-.55 1.76-1.68 2.31-2.31L66.55 60H36.36l2.87-10h20.229l2.61.75-1.95-1.89-9.46-16.38-.66-2.64-.66 2.64L39.23 50 27.66 70.03l-5.19 8.989C9.821 67.77 6.18 46.88 14.27 32.01c9.94-19.73 33.98-27.67 53.72-17.74zm-24.53 8.4l2.91-3.35-5.33 2.05C26.26 25.83 17.2 41.53 20.72 56.55l.892 5.65L23.06 58l20.4-35.33z"></path></g><!----></svg>